<?xml version="1.0" standalone="no"?>
<!DOCTYPE svg PUBLIC "-//W3C//DTD SVG 20010904//EN"
 "http://www.w3.org/TR/2001/REC-SVG-20010904/DTD/svg10.dtd">
<svg version="1.0" xmlns="http://www.w3.org/2000/svg"
 width="1000.000000pt" height="1000.000000pt" viewBox="0 0 1000.000000 1000.000000"
 preserveAspectRatio="xMidYMid meet">
<metadata>
Created by potrace 1.14, written by Peter Selinger 2001-2017
</metadata>
<g transform="translate(0.000000,1000.000000) scale(0.100000,-0.100000)"
fill="#000000" stroke="none">
<path d="M2370 5000 l0 -2100 1245 0 1245 0 0 980 0 980 -430 0 -430 0 0 -360
0 -360 -150 0 -150 0 0 860 0 860 150 0 150 0 0 -360 0 -360 430 0 430 0 0
980 0 980 -1245 0 -1245 0 0 -2100z m1195 0 l0 -695 -120 0 -120 0 -3 685 c-1
377 0 691 3 698 3 9 34 12 122 10 l118 -3 0 -695z m-365 0 l0 -350 -125 0
-125 0 0 350 0 350 125 0 125 0 0 -350z"/>
<path d="M5140 5000 l0 -2100 1245 0 1245 0 0 2100 0 2100 -1245 0 -1245 0 0
-2100z m2250 0 l0 -1860 -1005 0 -1005 0 0 860 0 860 310 0 310 0 0 -360 0
-360 150 0 150 0 0 860 0 860 -150 0 -150 0 0 -360 0 -360 -310 0 -310 0 0
860 0 860 1005 0 1005 0 0 -1860z"/>
<path d="M6435 5688 c-3 -7 -4 -321 -3 -698 l3 -685 120 0 120 0 0 695 0 695
-118 3 c-88 2 -119 -1 -122 -10z"/>
<path d="M6800 5000 l0 -350 120 0 120 0 0 350 0 350 -120 0 -120 0 0 -350z"/>
</g>
</svg>
